HIERARCHY
ROOT WildBoar_ROOTSHJnt
{
	OFFSET 0.000000 44.410820 68.815338
	CHANNELS 6 Xposition Yposition Zposition Xrotation Yrotation Zrotation
	JOINT WildBoar_Spine_01SHJnt
	{
		OFFSET -0.000000 -13.726324 -0.500702
		CHANNELS 3 Xrotation Yrotation Zrotation
		JOINT WildBoar_Spine_02SHJnt
		{
			OFFSET -0.000000 -13.721075 -0.511734
			CHANNELS 3 Xrotation Yrotation Zrotation
			JOINT WildBoar_Spine_03SHJnt
			{
				OFFSET -0.000000 -13.733017 -0.763184
				CHANNELS 3 Xrotation Yrotation Zrotation
				JOINT WildBoar_Spine_04SHJnt
				{
					OFFSET 0.000000 -13.726805 1.066475
					CHANNELS 3 Xrotation Yrotation Zrotation
					JOINT WildBoar_Spine_TopSHJnt
					{
						OFFSET 0.000000 -13.726805 0.709183
						CHANNELS 3 Xrotation Yrotation Zrotation
						JOINT WildBoar_l_Clavicle_01_01SHJnt
						{
							OFFSET 8.670297 0.000000 0.000000
							CHANNELS 3 Xrotation Yrotation Zrotation
							JOINT WildBoar_l_FrontLeg_HipSHJnt
							{
								OFFSET 3.164961 0.548840 -12.164703
								CHANNELS 3 Xrotation Yrotation Zrotation
								JOINT WildBoar_l_FrontLeg_Knee1SHJnt
								{
									OFFSET 0.316314 -0.817221 -32.444130
									CHANNELS 3 Xrotation Yrotation Zrotation
									JOINT WildBoar_l_FrontLeg_Knee2SHJnt
									{
										OFFSET 0.171660 1.067869 -17.603088
										CHANNELS 3 Xrotation Yrotation Zrotation
										JOINT WildBoar_l_FrontLeg_AnkleSHJnt
										{
											OFFSET 0.012912 -0.586981 -1.322436
											CHANNELS 3 Xrotation Yrotation Zrotation
											JOINT WildBoar_l_FrontLeg_BallSHJnt
											{
												OFFSET -0.004807 -3.825893 -5.280976
												CHANNELS 3 Xrotation Yrotation Zrotation
												JOINT WildBoar_l_FrontLeg_ToeSHJnt
												{
													OFFSET -0.006160 -4.905069 -0.000002
													CHANNELS 3 Xrotation Yrotation Zrotation
													End Site
													{
														OFFSET 4.905067 -0.006161 -0.000003
													}
												}
											}
										}
									}
								}
							}
						}
						JOINT WildBoar_r_Clavicle_01_01SHJnt
						{
							OFFSET -8.670297 0.000000 0.000000
							CHANNELS 3 Xrotation Yrotation Zrotation
							JOINT WildBoar_r_FrontLeg_HipSHJnt
							{
								OFFSET -3.164964 0.548840 -12.164703
								CHANNELS 3 Xrotation Yrotation Zrotation
								JOINT WildBoar_r_FrontLeg_Knee1SHJnt
								{
									OFFSET -0.316322 -0.817221 -32.444130
									CHANNELS 3 Xrotation Yrotation Zrotation
									JOINT WildBoar_r_FrontLeg_Knee2SHJnt
									{
										OFFSET -0.171665 1.067869 -17.603088
										CHANNELS 3 Xrotation Yrotation Zrotation
										JOINT WildBoar_r_FrontLeg_AnkleSHJnt
										{
											OFFSET -0.012913 -0.586981 -1.322436
											CHANNELS 3 Xrotation Yrotation Zrotation
											JOINT WildBoar_r_FrontLeg_BallSHJnt
											{
												OFFSET 0.004806 -3.825893 -5.280976
												CHANNELS 3 Xrotation Yrotation Zrotation
												JOINT WildBoar_r_FrontLeg_ToeSHJnt
												{
													OFFSET 0.006160 -4.905069 -0.000002
													CHANNELS 3 Xrotation Yrotation Zrotation
													End Site
													{
														OFFSET 4.905068 0.006161 -0.000002
													}
												}
											}
										}
									}
								}
							}
						}
						JOINT WildBoar_Neck_01SHJnt
						{
							OFFSET -0.000000 -12.476246 -2.105774
							CHANNELS 3 Xrotation Yrotation Zrotation
							JOINT WildBoar_Neck_02SHJnt
							{
								OFFSET 0.000000 -10.017231 1.165779
								CHANNELS 3 Xrotation Yrotation Zrotation
								JOINT WildBoar_Neck_TopSHJnt
								{
									OFFSET 0.000000 -9.610825 0.768044
									CHANNELS 3 Xrotation Yrotation Zrotation
									JOINT WildBoar_Head_JawSHJnt
									{
										OFFSET -0.000001 -11.273338 -4.973049
										CHANNELS 3 Xrotation Yrotation Zrotation
										JOINT WildBoar_Head_JawEndSHJnt
										{
											OFFSET -0.000002 -22.190353 -15.124695
											CHANNELS 3 Xrotation Yrotation Zrotation
											End Site
											{
												OFFSET -0.000002 -22.110291 -15.241497
											}
										}
									}
									JOINT WildBoar_Head_TopSHJnt
									{
										OFFSET 0.000002 -15.944977 17.523094
										CHANNELS 3 Xrotation Yrotation Zrotation
										JOINT WildBoar_l_Ear_01_01SHJnt
										{
											OFFSET 10.362524 11.406597 -2.807991
											CHANNELS 3 Xrotation Yrotation Zrotation
											JOINT WildBoar_l_Ear_01_02SHJnt
											{
												OFFSET 6.918999 -0.514683 5.827293
												CHANNELS 3 Xrotation Yrotation Zrotation
												JOINT WildBoar_l_Ear_01_03SHJnt
												{
													OFFSET 5.957382 0.355659 6.469810
													CHANNELS 3 Xrotation Yrotation Zrotation
													End Site
													{
														OFFSET 5.020468 -6.741234 -2.612671
													}
												}
											}
										}
										JOINT WildBoar_r_Ear_01_01SHJnt
										{
											OFFSET -10.362526 11.406597 -2.807991
											CHANNELS 3 Xrotation Yrotation Zrotation
											JOINT WildBoar_r_Ear_01_02SHJnt
											{
												OFFSET -6.918997 -0.514683 5.827293
												CHANNELS 3 Xrotation Yrotation Zrotation
												JOINT WildBoar_r_Ear_01_03SHJnt
												{
													OFFSET -5.957380 0.355659 6.469810
													CHANNELS 3 Xrotation Yrotation Zrotation
													End Site
													{
														OFFSET -5.020468 -6.741234 -2.612671
													}
												}
											}
										}
										JOINT WildBoar_Nose_01_01SHJnt
										{
											OFFSET 0.146534 -15.145607 -20.472496
											CHANNELS 3 Xrotation Yrotation Zrotation
											JOINT WildBoar_Nose_01_02SHJnt
											{
												OFFSET -0.000001 -9.738365 -5.125526
												CHANNELS 3 Xrotation Yrotation Zrotation
												End Site
												{
													OFFSET 0.000001 -6.131317 9.138596
												}
											}
										}
									}
								}
							}
						}
					}
				}
			}
		}
	}
	JOINT WildBoar_l_HindLeg_HipSHJnt
	{
		OFFSET 11.907801 0.071259 -9.892372
		CHANNELS 3 Xrotation Yrotation Zrotation
		JOINT WildBoar_l_HindLeg_Knee1SHJnt
		{
			OFFSET -1.208079 8.601734 -32.196701
			CHANNELS 3 Xrotation Yrotation Zrotation
			JOINT WildBoar_l_HindLeg_Knee2SHJnt
			{
				OFFSET 0.929813 -5.149776 -18.902822
				CHANNELS 3 Xrotation Yrotation Zrotation
				JOINT WildBoar_l_HindLeg_AnkleSHJnt
				{
					OFFSET -0.016349 -0.419094 -2.601883
					CHANNELS 3 Xrotation Yrotation Zrotation
					JOINT WildBoar_l_HindLeg_BallSHJnt
					{
						OFFSET -0.062816 -2.064716 -5.221140
						CHANNELS 3 Xrotation Yrotation Zrotation
						JOINT WildBoar_l_HindLeg_ToeSHJnt
						{
							OFFSET 0.563698 -5.159508 -0.000093
							CHANNELS 3 Xrotation Yrotation Zrotation
							End Site
							{
								OFFSET 5.159507 0.563698 0.000025
							}
						}
					}
				}
			}
		}
	}
	JOINT WildBoar_r_HindLeg_HipSHJnt
	{
		OFFSET -11.907801 0.071259 -9.892372
		CHANNELS 3 Xrotation Yrotation Zrotation
		JOINT WildBoar_r_HindLeg_Knee1SHJnt
		{
			OFFSET 1.208084 8.601734 -32.196701
			CHANNELS 3 Xrotation Yrotation Zrotation
			JOINT WildBoar_r_HindLeg_Knee2SHJnt
			{
				OFFSET -0.929811 -5.149776 -18.902822
				CHANNELS 3 Xrotation Yrotation Zrotation
				JOINT WildBoar_r_HindLeg_AnkleSHJnt
				{
					OFFSET 0.016349 -0.419094 -2.601883
					CHANNELS 3 Xrotation Yrotation Zrotation
					JOINT WildBoar_r_HindLeg_BallSHJnt
					{
						OFFSET 0.062817 -2.064716 -5.221139
						CHANNELS 3 Xrotation Yrotation Zrotation
						JOINT WildBoar_r_HindLeg_ToeSHJnt
						{
							OFFSET -0.563698 -5.159508 -0.000092
							CHANNELS 3 Xrotation Yrotation Zrotation
							End Site
							{
								OFFSET 5.159507 -0.563698 -0.000023
							}
						}
					}
				}
			}
		}
	}
	JOINT WildBoar_Tail_01_01SHJnt
	{
		OFFSET 0.000000 20.717888 9.172180
		CHANNELS 3 Xrotation Yrotation Zrotation
		JOINT WildBoar_Tail_01_02SHJnt
		{
			OFFSET -0.000000 5.092255 -8.034218
			CHANNELS 3 Xrotation Yrotation Zrotation
			JOINT WildBoar_Tail_01_03SHJnt
			{
				OFFSET -0.000000 -0.708420 -11.714390
				CHANNELS 3 Xrotation Yrotation Zrotation
				End Site
				{
					OFFSET -0.000000 11.707321 -0.816906
				}
			}
		}
	}
}
MOTION
Frames: 4
Frame Time: 0.033333
0.000000 44.410820 68.815338 -0.000000 0.000000 -1.531618 -0.483751 -0.000555 0.070074 0.332236 -0.000386 0.112471 0.302590 0.000074 0.026216 0.332360 0.000337 0.038047 -0.483650 0.000003 0.024334 -0.000000 -0.000000 0.000000 1.857676 -1.785181 2.098042 -4.424464 0.001781 -0.043093 2.897155 -0.001879 0.084975 -0.259947 1.853649 -0.820406 0.000000 0.000106 0.000000 0.000000 0.000000 0.000000 -0.000000 -0.000000 -0.000000 0.034380 -1.838495 2.016928 -0.852346 -0.000089 0.008313 0.554034 0.002275 0.060369 0.331076 1.835957 -0.824408 0.000000 -0.000074 0.000000 0.000000 -0.000000 -0.000000 0.469729 -0.663693 -3.432511 0.522949 -0.757080 -3.850435 0.011933 -0.248062 -1.495156 -16.076720 -0.000003 0.000001 0.000003 0.000001 -0.000000 0.000009 -0.000009 -0.000005 -0.000004 0.000006 -0.000001 0.000001 0.000001 -0.000000 -0.000002 0.000009 -0.000002 0.447705 -0.686462 -0.469747 0.298449 -0.771856 -0.456277 -0.000005 0.000001 0.000002 -0.000002 -0.000001 -0.000000 -0.000003 0.000001 0.000001 0.278703 -0.003139 1.507655 0.164721 0.026474 0.000853 -0.104996 -0.018240 0.021304 -0.338188 0.002376 0.001749 -0.000000 0.000004 -0.000000 0.000000 -0.000000 -0.000000 -0.284692 -0.008442 1.511394 -0.147962 0.023776 0.000830 0.000001 -0.000003 0.000004 0.338341 -0.006801 0.003243 0.000001 0.000006 0.000000 0.000000 -0.000000 0.000000 -0.032594 1.361814 1.170065 0.018429 10.305314 -0.204357 0.059566 9.829549 -0.692706 
0.000000 44.410820 68.815338 -0.000000 0.000000 -1.577970 -0.335987 -0.000281 0.050138 0.230861 -0.000187 0.080290 0.210176 0.000033 0.018753 0.230869 0.000164 0.027221 -0.335958 0.000001 0.017409 0.000000 -0.000000 0.000000 2.061706 -1.885155 2.279598 -4.913946 0.002180 -0.047848 3.255790 -0.002285 0.090854 -0.319049 1.966083 -0.869296 0.000000 0.000324 0.000000 0.000000 0.000000 0.000000 0.000000 -0.000000 -0.000000 0.075015 -1.947448 2.186451 -1.036300 -0.000119 0.010103 0.673599 0.002668 0.063643 0.364610 1.945787 -0.874556 0.000000 -0.000075 0.000000 0.000000 -0.000000 -0.000000 0.411116 -0.664266 -3.556355 0.454500 -0.764009 -4.007940 0.010722 -0.268547 -1.589745 -16.076718 -0.000000 0.000002 0.000002 0.000000 -0.000001 0.000010 -0.000008 -0.000006 -0.000003 0.000004 0.000003 -0.000002 0.000005 0.000001 -0.000006 0.000003 -0.000003 0.447705 -0.686461 -0.469743 0.298442 -0.771857 -0.456277 -0.000005 0.000002 0.000009 -0.000003 0.000000 0.000001 -0.000003 0.000001 0.000001 0.287047 -0.003154 1.553222 0.169955 0.027315 0.000881 -0.108331 -0.018825 0.022025 -0.348420 0.002590 0.001778 -0.000000 0.000004 -0.000000 -0.000000 -0.000000 -0.000000 -0.293403 -0.008785 1.557192 -0.152179 0.024454 0.000855 0.000006 -0.000004 0.000004 0.348575 -0.007144 0.003367 0.000001 0.000006 -0.000001 -0.000000 0.000000 0.000000 -0.022697 -1.238051 -0.868635 0.008045 6.834629 -0.134707 0.078193 11.240491 -0.794576 
0.000000 44.410820 68.815338 -0.000000 0.000000 -1.598656 -0.177834 -0.000159 0.041238 0.122269 -0.000083 0.065939 0.111297 0.000009 0.015423 0.122266 0.000073 0.022385 -0.177917 0.000001 0.014321 -0.000000 0.000000 0.000000 2.075977 -1.932323 2.357481 -4.913947 0.002179 -0.047847 3.287704 -0.002643 0.091954 -0.357223 2.016106 -0.890838 0.000001 0.000499 0.000000 -0.000000 -0.000000 0.000000 0.000000 0.000000 -0.000000 0.096894 -1.995758 2.262218 -1.128649 -0.000136 0.011002 0.733652 0.002853 0.065067 0.379698 1.994728 -0.896933 0.000000 -0.000072 0.000000 -0.000000 -0.000000 -0.000000 0.369658 -0.666569 -3.614621 0.406344 -0.769172 -4.083439 0.008104 -0.280525 -1.637331 -16.076725 0.000002 0.000008 -0.000000 0.000001 -0.000000 0.000009 -0.000008 -0.000005 0.000002 0.000004 0.000003 -0.000002 0.000002 -0.000000 -0.000003 0.000009 -0.000003 0.447714 -0.686468 -0.469740 0.298446 -0.771856 -0.456272 -0.000006 0.000009 0.000003 0.000002 0.000000 -0.000001 0.000000 0.000002 0.000001 0.290768 -0.003158 1.573555 0.172298 0.027690 0.000889 -0.109823 -0.019085 0.022350 -0.352987 0.002688 0.001792 -0.000000 0.000004 -0.000000 0.000000 -0.000000 -0.000000 -0.297289 -0.008945 1.577627 -0.154058 0.024757 0.000864 0.000001 -0.000003 0.000004 0.353142 -0.007302 0.003423 0.000001 0.000006 0.000000 -0.000000 0.000000 -0.000000 -0.074145 -3.127827 -2.532911 0.000605 1.874979 -0.036792 0.065065 10.267405 -0.724220 
0.000000 44.410820 68.815338 -0.000000 0.000000 -1.611712 -0.014646 -0.000026 0.035616 0.010103 -0.000021 0.056946 0.009198 -0.000013 0.013323 0.010102 0.000008 0.019333 -0.014705 0.000001 0.012367 -0.000000 0.000000 0.000000 2.085018 -1.962087 2.406669 -4.913950 0.002180 -0.047845 3.308307 -0.002880 0.092616 -0.381646 2.047679 -0.904412 0.000001 0.000618 0.000000 -0.000000 -0.000000 0.000000 0.000000 0.000000 0.000000 0.112093 -2.026182 2.310176 -1.190893 -0.000153 0.011612 0.774126 0.002979 0.065946 0.389255 2.025599 -0.911051 0.000000 -0.000072 0.000000 0.000000 -0.000000 -0.000000 0.334148 -0.669607 -3.652908 0.365154 -0.773893 -4.133237 0.005073 -0.289565 -1.668937 -16.076729 0.000006 0.000010 -0.000000 -0.000000 -0.000001 0.000009 -0.000007 -0.000005 -0.000000 0.000012 0.000004 -0.000001 0.000000 0.000003 -0.000005 0.000008 -0.000003 0.447707 -0.686466 -0.469739 0.298442 -0.771856 -0.456276 -0.000008 0.000003 0.000004 0.000002 0.000000 -0.000001 0.000000 0.000001 0.000001 0.293114 -0.003164 1.586394 0.173781 0.027928 0.000895 -0.110768 -0.019249 0.022558 -0.355870 0.002748 0.001803 -0.000000 0.000004 -0.000000 0.000000 0.000000 -0.000000 -0.299740 -0.009048 1.590528 -0.155251 0.024947 0.000873 0.000002 -0.000003 0.000004 0.356034 -0.007402 0.003456 0.000001 0.000006 0.000000 -0.000000 0.000000 0.000000 -0.118715 -3.895852 -3.429851 0.001634 -3.084342 0.060561 0.028483 6.819108 -0.478084 
